<svg xmlns="http://www.w3.org/2000/svg"><symbol id="shape-chevron-down" viewBox="-173.8 401.9 24 14.8"><path d="M-171 401.9l9.2 9.2 9.2-9.2 2.8 2.8-12 12-12-12 2.8-2.8z"/><path class="st0" d="M-273 396.1h48v48h-48v-48z"/></symbol><symbol id="shape-chevron-left" viewBox="0 0 6.9 18.2"><path class="st0" d="M6.3 18.2c-.2 0-.3-.1-.4-.2L.1 9.4C0 9.2 0 9 .1 8.8L6 .2c.1-.2.4-.3.6-.1.2.2.3.5.1.7L1.1 9.1l5.7 8.3c.2.2.1.5-.1.7-.2.1-.3.1-.4.1z"/></symbol><symbol id="shape-chevron-right" viewBox="0 0 6.9 18.2"><path class="st0" d="M.5 18.2c.2 0 .3-.1.4-.2l5.8-8.6c.1-.2.1-.4 0-.6L.9.2C.8 0 .4-.1.2.1 0 .2-.1.6.1.8l5.7 8.3-5.7 8.3c-.1.3-.1.6.1.7.1.1.2.1.3.1z"/></symbol><symbol id="shape-envelope" viewBox="562 61.82 511.627 401.989"><path d="M611.106 185.729c6.473 4.566 25.98 18.131 58.527 40.685 32.549 22.555 57.482 39.92 74.804 52.1 1.903 1.335 5.946 4.236 12.131 8.71 6.187 4.476 11.326 8.093 15.416 10.852 4.093 2.758 9.041 5.852 14.849 9.277 5.807 3.422 11.279 5.996 16.418 7.7 5.141 1.718 9.898 2.568 14.275 2.568h.575c4.377 0 9.137-.852 14.276-2.568 5.138-1.704 10.615-4.281 16.416-7.7 5.805-3.43 10.752-6.521 14.846-9.277 4.093-2.759 9.229-6.376 15.417-10.852 6.185-4.478 10.231-7.375 12.135-8.71 17.509-12.18 62.052-43.11 133.614-92.79 13.895-9.703 25.502-21.411 34.828-35.116 9.332-13.699 13.992-28.07 13.992-43.105 0-12.563-4.521-23.318-13.564-32.264-9.041-8.947-19.748-13.418-32.117-13.418H607.679c-14.655 0-25.933 4.948-33.832 14.844C565.95 86.562 562 98.934 562 113.779c0 11.991 5.235 24.985 15.703 38.974 10.465 13.99 21.604 24.983 33.403 32.976z"/><path d="M1045.073 216.275c-62.425 42.251-109.824 75.087-142.178 98.501-10.85 7.991-19.65 14.229-26.409 18.699-6.759 4.473-15.748 9.041-26.979 13.702-11.229 4.668-21.692 6.995-31.401 6.995h-.578c-9.707 0-20.177-2.327-31.405-6.995-11.228-4.661-20.223-9.229-26.979-13.702-6.755-4.47-15.56-10.708-26.407-18.699-25.697-18.842-72.995-51.68-141.896-98.501-10.852-7.229-20.463-15.513-28.838-24.838v226.685c0 12.57 4.471 23.319 13.418 32.266 8.944 8.949 19.701 13.422 32.264 13.422h420.266c12.561 0 23.314-4.473 32.262-13.422 8.949-8.949 13.418-19.694 13.418-32.266V191.437c-8.189 9.132-17.705 17.417-28.558 24.838z"/></symbol><symbol id="shape-facebook-2" viewBox="0 0 60.734 60.733"><path d="M57.378.001H3.352A3.352 3.352 0 0 0 0 3.353v54.026a3.353 3.353 0 0 0 3.352 3.354h29.086V37.214h-7.914v-9.167h7.914v-6.76c0-7.843 4.789-12.116 11.787-12.116 3.355 0 6.232.251 7.071.36v8.198l-4.854.002c-3.805 0-4.539 1.809-4.539 4.462v5.851h9.078l-1.187 9.166h-7.892v23.52h15.475a3.355 3.355 0 0 0 3.355-3.351V3.351a3.352 3.352 0 0 0-3.354-3.35z"/></symbol><symbol id="shape-facebook" viewBox="63.6 185.4 219.3 470.5"><path d="M209.5 339.5V299c0-6.1.3-10.8.8-14.1.6-3.3 1.9-6.6 3.9-9.9 2-3.2 5.2-5.5 9.7-6.7 4.5-1.2 10.4-1.9 17.9-1.9h40.5v-81.1h-64.8c-37.5 0-64.4 8.9-80.8 26.7-16.4 17.8-24.6 44-24.6 78.7v48.8H63.6v81.1h48.5v235.3h97.4V420.6h64.8l8.6-81.1h-73.4z"/></symbol><symbol id="shape-google" viewBox="0 0 475.092 475.092"><path d="M273.372 302.498a148.384 148.384 0 0 0-16.7-18.842c-6.091-5.804-12.183-11.088-18.271-15.845-6.092-4.757-11.659-9.329-16.702-13.709-5.042-4.374-9.135-8.945-12.275-13.702-3.14-4.757-4.711-9.61-4.711-14.558 0-6.855 2.19-13.278 6.567-19.274 4.377-5.996 9.707-11.799 15.986-17.417 6.28-5.617 12.559-11.753 18.844-18.415 6.276-6.665 11.604-15.465 15.985-26.412 4.373-10.944 6.563-23.458 6.563-37.542 0-16.75-3.713-32.835-11.136-48.25-7.423-15.418-17.89-27.412-31.405-35.976h38.54L303.2 0H178.441c-17.699 0-35.498 1.906-53.384 5.72-26.453 5.9-48.723 19.368-66.806 40.397-18.08 21.033-27.122 44.873-27.122 71.52 0 28.171 10.138 51.583 30.406 70.233 20.269 18.649 44.585 27.978 72.945 27.978 5.71 0 12.371-.478 19.985-1.427-.381 1.521-1.043 3.567-1.997 6.136s-1.715 4.62-2.286 6.14c-.57 1.521-1.047 3.375-1.425 5.566a38.99 38.99 0 0 0-.571 6.71c0 12.563 6.086 26.744 18.271 42.541-14.465.387-28.737 1.67-42.825 3.86-14.084 2.19-28.833 5.616-44.252 10.28-15.417 4.661-29.217 11.42-41.396 20.27-12.182 8.854-21.317 19.366-27.408 31.549C3.533 361.559.01 374.405.01 386.017c0 12.751 2.857 24.314 8.565 34.69 5.708 10.369 13.035 18.842 21.982 25.406 8.945 6.57 19.273 12.083 30.978 16.562 11.704 4.47 23.315 7.659 34.829 9.562 11.516 1.903 22.888 2.854 34.119 2.854 51.007 0 90.981-12.464 119.909-37.397 26.648-23.223 39.971-50.062 39.971-80.517 0-10.855-1.57-20.984-4.712-30.409-3.141-9.431-7.231-17.514-12.279-24.27zM163.311 198.722c-9.707 0-18.937-2.475-27.694-7.426-8.757-4.95-16.18-11.374-22.27-19.273-6.088-7.898-11.418-16.796-15.987-26.695-4.567-9.896-7.944-19.792-10.135-29.692-2.19-9.895-3.284-19.318-3.284-28.265 0-18.271 4.854-33.974 14.562-47.108 9.705-13.134 23.411-19.701 41.112-19.701 12.563 0 23.935 3.899 34.118 11.704 10.183 7.804 18.177 17.701 23.984 29.692a187.496 187.496 0 0 1 13.417 37.257c3.14 12.847 4.711 24.983 4.711 36.403 0 19.036-4.139 34.317-12.419 45.833-8.282 11.513-21.651 17.271-40.115 17.271zm78.94 214.401c-5.23 8.949-12.319 15.94-21.267 20.981-8.946 5.048-18.509 8.758-28.693 11.14-10.183 2.385-20.889 3.572-32.12 3.572-12.182 0-24.27-1.431-36.258-4.284-11.99-2.851-23.459-7.187-34.403-12.991-10.944-5.8-19.795-13.798-26.551-23.982-6.757-10.184-10.135-21.744-10.135-34.69 0-11.419 2.568-21.601 7.708-30.55 5.142-8.945 11.709-16.084 19.702-21.408 7.994-5.332 17.319-9.713 27.979-13.131 10.66-3.433 20.937-5.808 30.833-7.139 9.895-1.335 19.985-1.995 30.262-1.995 6.283 0 11.043.191 14.277.567 1.143.767 4.043 2.759 8.708 5.996s7.804 5.428 9.423 6.57c1.615 1.137 4.567 3.326 8.85 6.563 4.281 3.237 7.327 5.661 9.135 7.279 1.803 1.618 4.421 4.045 7.849 7.279 3.424 3.237 5.948 6.043 7.566 8.422a982.05 982.05 0 0 0 5.996 8.702c2.38 3.433 4.043 6.715 4.998 9.855a158.985 158.985 0 0 1 2.707 10.277c.855 3.72 1.283 7.569 1.283 11.57.005 11.987-2.613 22.456-7.849 31.397z"/><path d="M401.998 73.089V0h-36.549v73.089h-73.091v36.547h73.091v73.089h36.549v-73.089h73.083V73.089z"/></symbol><symbol id="shape-instagram" viewBox="0 0 169.063 169.063"><path d="M122.406 0H46.654C20.929 0 0 20.93 0 46.655v75.752c0 25.726 20.929 46.655 46.654 46.655h75.752c25.727 0 46.656-20.93 46.656-46.655V46.655C169.063 20.93 148.133 0 122.406 0zm31.657 122.407c0 17.455-14.201 31.655-31.656 31.655H46.654C29.2 154.063 15 139.862 15 122.407V46.655C15 29.201 29.2 15 46.654 15h75.752c17.455 0 31.656 14.201 31.656 31.655v75.752z"/><path d="M84.531 40.97c-24.021 0-43.563 19.542-43.563 43.563 0 24.02 19.542 43.561 43.563 43.561s43.563-19.541 43.563-43.561c0-24.021-19.542-43.563-43.563-43.563zm0 72.123c-15.749 0-28.563-12.812-28.563-28.561 0-15.75 12.813-28.563 28.563-28.563s28.563 12.813 28.563 28.563c0 15.749-12.814 28.561-28.563 28.561zM129.921 28.251c-2.89 0-5.729 1.17-7.77 3.22a11.053 11.053 0 0 0-3.23 7.78c0 2.891 1.18 5.73 3.23 7.78 2.04 2.04 4.88 3.22 7.77 3.22 2.9 0 5.73-1.18 7.78-3.22 2.05-2.05 3.22-4.89 3.22-7.78 0-2.9-1.17-5.74-3.22-7.78-2.04-2.05-4.88-3.22-7.78-3.22z"/></symbol><symbol id="shape-linkedin" viewBox="-78 211.1 438.5 419.1"><path d="M-72.6 347.3h94.2v282.9h-94.2zM330.8 373.1c-19.8-21.6-46-32.4-78.5-32.4-12 0-22.9 1.5-32.7 4.4-9.8 2.9-18.1 7.1-24.8 12.4-6.8 5.3-12.1 10.3-16.1 14.8-3.8 4.3-7.5 9.4-11.1 15.1v-40.2h-94l.3 13.7c.2 9.1.3 37.3.3 84.5s-.2 108.8-.6 184.7h93.9V472.3c0-9.7 1-17.4 3.1-23.1 4-9.7 10-17.8 18.1-24.4 8.1-6.6 18.1-9.9 30.1-9.9 16.4 0 28.4 5.7 36.1 17 7.7 11.3 11.6 27 11.6 47v151.3h93.9V468c.1-41.7-9.8-73.3-29.6-94.9zM-24.9 211.1c-15.8 0-28.6 4.6-38.4 13.8-9.8 9.2-14.7 20.9-14.7 35 0 13.9 4.8 25.5 14.3 34.8 9.5 9.3 22.1 14 37.7 14h.6c16 0 28.9-4.7 38.7-14 9.8-9.3 14.6-20.9 14.4-34.8-.2-14.1-5-25.7-14.6-35-9.5-9.2-22.2-13.8-38-13.8z"/></symbol><symbol id="shape-minus" viewBox="0 0 533.333 533.333"><path d="M0 216.667v100c0 9.204 7.462 16.666 16.667 16.666h500c9.204 0 16.667-7.462 16.667-16.666v-100c0-9.204-7.463-16.667-16.667-16.667h-500C7.462 200 0 207.462 0 216.667z"/></symbol><symbol id="shape-plus" viewBox="0 0 533.333 533.333"><path d="M516.667 200H333.333V16.667C333.333 7.462 325.871 0 316.667 0h-100C207.462 0 200 7.462 200 16.667V200H16.667C7.462 200 0 207.462 0 216.667v100c0 9.204 7.462 16.666 16.667 16.666H200v183.334c0 9.204 7.462 16.666 16.667 16.666h100c9.204 0 16.667-7.462 16.667-16.666V333.333h183.333c9.204 0 16.667-7.462 16.667-16.666v-100c-.001-9.205-7.463-16.667-16.667-16.667z"/></symbol><symbol id="shape-star" viewBox="0 0 475.075 475.075"><path d="M475.075 186.573c0-7.043-5.328-11.42-15.992-13.135L315.766 152.6 251.529 22.694c-3.614-7.804-8.281-11.704-13.99-11.704-5.708 0-10.372 3.9-13.989 11.704L159.31 152.6 15.986 173.438C5.33 175.153 0 179.53 0 186.573c0 3.999 2.38 8.567 7.139 13.706l103.924 101.068L86.51 444.096c-.381 2.666-.57 4.575-.57 5.712 0 3.997.998 7.374 2.996 10.136 1.997 2.766 4.993 4.142 8.992 4.142 3.428 0 7.233-1.137 11.42-3.423l128.188-67.386 128.197 67.386c4.004 2.286 7.81 3.423 11.416 3.423 3.819 0 6.715-1.376 8.713-4.142 1.992-2.758 2.991-6.139 2.991-10.136 0-2.471-.096-4.374-.287-5.712l-24.555-142.749 103.637-101.068c4.956-4.949 7.427-9.519 7.427-13.706z"/></symbol><symbol id="shape-telephone" viewBox="0 0 348.077 348.077"><path d="M340.273 275.083l-53.755-53.761c-10.707-10.664-28.438-10.34-39.518.744l-27.082 27.076a792.327 792.327 0 0 1-5.344-2.973c-17.102-9.476-40.509-22.464-65.14-47.113-24.704-24.701-37.704-48.144-47.209-65.257-1.003-1.813-1.964-3.561-2.913-5.221l18.176-18.149 8.936-8.947c11.097-11.1 11.403-28.826.721-39.521L73.39 8.194c-10.682-10.68-28.421-10.356-39.518.744l-15.15 15.237.414.411c-5.08 6.482-9.325 13.958-12.484 22.02C3.74 54.28 1.927 61.603 1.098 68.941-6 127.785 20.89 181.564 93.866 254.541c100.875 100.868 182.167 93.248 185.674 92.876 7.638-.913 14.958-2.738 22.397-5.627 7.992-3.122 15.463-7.361 21.941-12.43l.331.294 15.348-15.029c11.074-11.098 11.393-28.83.716-39.542z"/></symbol><symbol id="shape-tick" viewBox="0 0 442.533 442.533"><path d="M434.539 98.499l-38.828-38.828c-5.324-5.328-11.799-7.993-19.41-7.993-7.618 0-14.093 2.665-19.417 7.993L169.59 247.248l-83.939-84.225c-5.33-5.33-11.801-7.992-19.412-7.992-7.616 0-14.087 2.662-19.417 7.992L7.994 201.852C2.664 207.181 0 213.654 0 221.269c0 7.609 2.664 14.088 7.994 19.416l103.351 103.349 38.831 38.828c5.327 5.332 11.8 7.994 19.414 7.994 7.611 0 14.084-2.669 19.414-7.994l38.83-38.828L434.539 137.33c5.325-5.33 7.994-11.802 7.994-19.417.004-7.611-2.669-14.084-7.994-19.414z"/></symbol><symbol id="shape-twitter" viewBox="-72 238.2 450 365.4"><path d="M378 281.6c-17.7 7.6-35.4 12.4-53.1 14.3 20-12 33.5-28.9 40.5-50.8-18.3 10.8-37.8 18.3-58.5 22.3-18.3-19.4-40.7-29.1-67.4-29.1-25.5 0-47.2 9-65.2 27s-27 39.7-27 65.2c0 6.9.8 13.9 2.3 21.1-37.7-1.9-73-11.4-106.1-28.4-33-17-61.1-39.7-84.1-68.1-8.4 14.3-12.6 29.8-12.6 46.5 0 15.8 3.7 30.5 11.1 44 7.4 13.5 17.4 24.5 30 32.8-14.8-.6-28.7-4.5-41.7-11.7v1.1c0 22.3 7 41.8 21 58.7 14 16.8 31.6 27.5 53 31.8-8 2.1-16.1 3.1-24.3 3.1-5.3 0-11.1-.5-17.4-1.4 5.9 18.5 16.8 33.6 32.5 45.5 15.8 11.9 33.7 18 53.7 18.4C31.2 550.2-7 563.3-49.8 563.3c-8.2 0-15.6-.4-22.3-1.1 42.8 27.6 90 41.4 141.6 41.4 32.7 0 63.5-5.2 92.2-15.6 28.7-10.4 53.3-24.3 73.7-41.7 20.4-17.4 37.9-37.4 52.7-60.1 14.8-22.7 25.7-46.3 33-70.9 7.2-24.7 10.8-49.3 10.8-74.1 0-5.3-.1-9.3-.3-12 18.2-13.1 33.6-29 46.4-47.6z"/></symbol><symbol id="shape-youtube" viewBox="0 0 90 90"><path d="M70.939 65.832H66l.023-2.869a2.329 2.329 0 0 1 2.326-2.318h.315a2.332 2.332 0 0 1 2.332 2.318l-.057 2.869zm-18.526-6.148c-1.253 0-2.278.842-2.278 1.873V75.51c0 1.029 1.025 1.869 2.278 1.869 1.258 0 2.284-.84 2.284-1.869V61.557c0-1.032-1.026-1.873-2.284-1.873zM82.5 51.879v26.544C82.5 84.79 76.979 90 70.23 90H19.771C13.02 90 7.5 84.79 7.5 78.423V51.879c0-6.367 5.52-11.578 12.271-11.578H70.23c6.749 0 12.27 5.211 12.27 11.578zM23.137 81.305l-.004-27.961 6.255.002v-4.143l-16.674-.025v4.073l5.205.015v28.039h5.218zm18.75-23.796h-5.215V72.44c0 2.16.131 3.24-.008 3.621-.424 1.158-2.33 2.388-3.073.125-.126-.396-.015-1.591-.017-3.643l-.021-15.034h-5.186l.016 14.798c.004 2.268-.051 3.959.018 4.729.127 1.357.082 2.939 1.341 3.843 2.346 1.69 6.843-.252 7.968-2.668l-.01 3.083 4.188.005-.001-23.79zM58.57 74.607l-.011-12.427c-.004-4.736-3.547-7.572-8.356-3.74l.021-9.239-5.209.008-.025 31.89 4.284-.062.39-1.986c5.473 5.021 8.914 1.58 8.906-4.444zm16.321-1.647l-3.91.021c-.002.155-.008.334-.01.529v2.182c0 1.168-.965 2.119-2.137 2.119h-.766c-1.174 0-2.139-.951-2.139-2.119v-5.739h8.954v-3.37c0-2.463-.063-4.925-.267-6.333-.641-4.454-6.893-5.161-10.051-2.881a5.887 5.887 0 0 0-2.188 2.945c-.444 1.281-.665 3.031-.665 5.254v7.41c.002 12.318 14.964 10.577 13.179-.018zM54.833 32.732a3.55 3.55 0 0 0 1.254 1.584c.56.394 1.276.592 2.134.592.752 0 1.418-.203 1.998-.622.578-.417 1.065-1.04 1.463-1.871l-.099 2.046h5.813V9.74H62.82v19.24a1.907 1.907 0 0 1-3.811 0V9.74h-4.776v16.674c0 2.124.039 3.54.102 4.258.065.713.229 1.397.498 2.06zM37.217 18.77c0-2.373.198-4.226.591-5.562.396-1.331 1.107-2.401 2.137-3.208 1.027-.811 2.342-1.217 3.941-1.217 1.345 0 2.497.264 3.459.781.967.52 1.713 1.195 2.23 2.028a8 8 0 0 1 1.076 2.574c.195.891.291 2.235.291 4.048v6.252c0 2.293-.092 3.98-.271 5.051a8.006 8.006 0 0 1-1.146 3.004c-.58.924-1.329 1.615-2.237 2.056-.918.445-1.968.663-3.154.663-1.325 0-2.441-.183-3.361-.565-.923-.38-1.636-.953-2.144-1.714-.513-.762-.874-1.69-1.092-2.772-.219-1.081-.323-2.707-.323-4.874l.003-6.545zm4.553 9.82c0 1.4 1.042 2.543 2.311 2.543 1.27 0 2.308-1.143 2.308-2.543V15.43c0-1.398-1.038-2.541-2.308-2.541-1.269 0-2.311 1.143-2.311 2.541v13.16zm-16.088 6.645h5.484l.006-18.96L37.652.033h-5.998l-3.445 12.064L24.715 0h-5.936l6.894 16.284.009 18.951z"/></symbol></svg>