<svg version="1.1" id="Capa_1" xmlns="http://www.w3.org/2000/svg" x="0" y="0" width="511.627" height="401.989" viewBox="562 61.82 511.627 401.989" xml:space="preserve"><path d="M611.106 185.729c6.473 4.566 25.98 18.131 58.527 40.685 32.549 22.555 57.482 39.92 74.804 52.1 1.903 1.335 5.946 4.236 12.131 8.71 6.187 4.476 11.326 8.093 15.416 10.852 4.093 2.758 9.041 5.852 14.849 9.277 5.807 3.422 11.279 5.996 16.418 7.7 5.141 1.718 9.898 2.568 14.275 2.568h.575c4.377 0 9.137-.852 14.276-2.568 5.138-1.704 10.615-4.281 16.416-7.7 5.805-3.43 10.752-6.521 14.846-9.277 4.093-2.759 9.229-6.376 15.417-10.852 6.185-4.478 10.231-7.375 12.135-8.71 17.509-12.18 62.052-43.11 133.614-92.79 13.895-9.703 25.502-21.411 34.828-35.116 9.332-13.699 13.992-28.07 13.992-43.105 0-12.563-4.521-23.318-13.564-32.264-9.041-8.947-19.748-13.418-32.117-13.418H607.679c-14.655 0-25.933 4.948-33.832 14.844C565.95 86.562 562 98.934 562 113.779c0 11.991 5.235 24.985 15.703 38.974 10.465 13.99 21.604 24.983 33.403 32.976z"/><path d="M1045.073 216.275c-62.425 42.251-109.824 75.087-142.178 98.501-10.85 7.991-19.65 14.229-26.409 18.699-6.759 4.473-15.748 9.041-26.979 13.702-11.229 4.668-21.692 6.995-31.401 6.995h-.578c-9.707 0-20.177-2.327-31.405-6.995-11.228-4.661-20.223-9.229-26.979-13.702-6.755-4.47-15.56-10.708-26.407-18.699-25.697-18.842-72.995-51.68-141.896-98.501-10.852-7.229-20.463-15.513-28.838-24.838v226.685c0 12.57 4.471 23.319 13.418 32.266 8.944 8.949 19.701 13.422 32.264 13.422h420.266c12.561 0 23.314-4.473 32.262-13.422 8.949-8.949 13.418-19.694 13.418-32.266V191.437c-8.189 9.132-17.705 17.417-28.558 24.838z"/></svg>